{
	"asset":{
		"generator":"Khronos glTF Blender I/O v3.6.27",
		"version":"2.0"
	},
	"extensionsUsed":[
		"KHR_materials_emissive_strength",
		"KHR_materials_specular",
		"KHR_materials_ior"
	],
	"scene":0,
	"scenes":[
		{
			"name":"Scene",
			"nodes":[
				23
			]
		}
	],
	"nodes":[
		{
			"name":"Head",
			"rotation":[
				0.008866322226822376,
				1.0299435970750892e-08,
				-1.7048371603323176e-09,
				0.999960720539093
			],
			"scale":[
				1,
				0.9999998807907104,
				0.9999998807907104
			],
			"translation":[
				1.958122552991881e-11,
				0.32747143507003784,
				2.2574003777364737e-10
			]
		},
		{
			"name":"Wrist.L",
			"rotation":[
				-0.054198797792196274,
				-0.02311684750020504,
				-0.20339220762252808,
				0.9773227572441101
			],
			"translation":[
				-4.386824770108433e-08,
				0.20916928350925446,
				-4.6566128730773926e-09
			]
		},
		{
			"children":[
				1
			],
			"name":"LowerArm.L",
			"rotation":[
				0.1491936594247818,
				0.0009930406231433153,
				0.053376950323581696,
				0.9873657822608948
			],
			"scale":[
				1,
				1,
				0.9999999403953552
			],
			"translation":[
				1.5177150203271594e-07,
				0.2905154824256897,
				-3.725290298461914e-09
			]
		},
		{
			"children":[
				2
			],
			"name":"UpperArm.L",
			"rotation":[
				-0.038788117468357086,
				0.0174210537225008,
				-0.18913833796977997,
				0.9810294508934021
			],
			"scale":[
				0.9999998807907104,
				1,
				0.9999998211860657
			],
			"translation":[
				9.57670849288661e-08,
				0.15772205591201782,
				-2.0954757928848267e-09
			]
		},
		{
			"children":[
				3
			],
			"name":"Shoulder.L",
			"rotation":[
				-0.028120525181293488,
				0.008621467277407646,
				-0.715880274772644,
				0.6976032853126526
			],
			"scale":[
				0.9999999403953552,
				0.9999999403953552,
				1
			],
			"translation":[
				0.07121200859546661,
				0.2369561493396759,
				0.01820957288146019
			]
		},
		{
			"name":"Wrist.R",
			"rotation":[
				-0.054198820143938065,
				0.02311677485704422,
				0.2033921480178833,
				0.9773227572441101
			],
			"scale":[
				1,
				0.9999998807907104,
				0.9999999403953552
			],
			"translation":[
				-1.194598553411197e-07,
				0.20916926860809326,
				8.381903171539307e-09
			]
		},
		{
			"children":[
				5
			],
			"name":"LowerArm.R",
			"rotation":[
				0.149193674325943,
				-0.0009930263040587306,
				-0.05337692052125931,
				0.9873657822608948
			],
			"scale":[
				0.9999998807907104,
				0.9999999403953552,
				0.9999999403953552
			],
			"translation":[
				-1.8209129848401062e-07,
				0.2905154526233673,
				0
			]
		},
		{
			"children":[
				6
			],
			"name":"UpperArm.R",
			"rotation":[
				-0.03878812491893768,
				-0.017421003431081772,
				0.18913833796977997,
				0.9810294508934021
			],
			"scale":[
				0.9999998807907104,
				0.9999999403953552,
				0.9999998211860657
			],
			"translation":[
				1.3140265764377546e-07,
				0.15772204101085663,
				-8.149072527885437e-10
			]
		},
		{
			"children":[
				7
			],
			"name":"Shoulder.R",
			"rotation":[
				-0.028120385482907295,
				-0.008621329441666603,
				0.715880274772644,
				0.6976032853126526
			],
			"translation":[
				-0.07121199369430542,
				0.2369561493396759,
				0.018209602683782578
			]
		},
		{
			"children":[
				0,
				4,
				8
			],
			"name":"Spine2",
			"rotation":[
				0.07425736635923386,
				1.4197913067448553e-08,
				-1.610042232869091e-08,
				0.9972391128540039
			],
			"translation":[
				-1.3144640931272988e-10,
				0.18682147562503815,
				9.667939337987264e-09
			]
		},
		{
			"children":[
				9
			],
			"name":"Spine1",
			"rotation":[
				-0.12296517938375473,
				1.3487889027885558e-08,
				3.008311821872667e-08,
				0.9924110174179077
			],
			"scale":[
				1,
				1,
				0.9999999403953552
			],
			"translation":[
				-1.318671560834872e-10,
				0.11277007311582565,
				-5.5796083309189726e-09
			]
		},
		{
			"name":"Foot.L",
			"rotation":[
				0.7088817954063416,
				-0.01789087802171707,
				-0.021659623831510544,
				0.704767644405365
			],
			"translation":[
				-1.296944240891662e-08,
				0.4844546616077423,
				-5.296897143125534e-09
			]
		},
		{
			"children":[
				11
			],
			"name":"LowerLeg.L",
			"rotation":[
				-0.06432539969682693,
				0.0010120233055204153,
				-0.030183548107743263,
				0.9974718689918518
			],
			"scale":[
				0.9999998807907104,
				0.9999998807907104,
				0.9999999403953552
			],
			"translation":[
				9.027578684595028e-09,
				0.411377876996994,
				-1.6298145055770874e-09
			]
		},
		{
			"children":[
				12
			],
			"name":"UpperLeg.L",
			"rotation":[
				-0.002772537525743246,
				-0.07830274105072021,
				-0.9952252507209778,
				0.058204442262649536
			],
			"scale":[
				0.9999970197677612,
				0.9999997019767761,
				0.9999946355819702
			],
			"translation":[
				0.10010898113250732,
				0.07163606584072113,
				0.012204499915242195
			]
		},
		{
			"name":"Foot.R",
			"rotation":[
				0.708881676197052,
				0.01789299212396145,
				0.021662099286913872,
				0.7047677040100098
			],
			"scale":[
				1.0000001192092896,
				1,
				0.9999999403953552
			],
			"translation":[
				1.8485928343636715e-09,
				0.484454482793808,
				-9.313225746154785e-10
			]
		},
		{
			"children":[
				14
			],
			"name":"LowerLeg.R",
			"rotation":[
				-0.06432541459798813,
				-0.001012026215903461,
				0.030183525756001472,
				0.9974718689918518
			],
			"scale":[
				0.9999998807907104,
				1,
				0.9999999403953552
			],
			"translation":[
				2.118358111147245e-08,
				0.41137775778770447,
				2.9685907065868378e-09
			]
		},
		{
			"children":[
				15
			],
			"name":"UpperLeg.R",
			"rotation":[
				-0.0027726052794605494,
				0.0783027783036232,
				0.9952252507209778,
				0.05820439010858536
			],
			"scale":[
				0.9999969601631165,
				0.9999997615814209,
				0.9999948143959045
			],
			"translation":[
				-0.10010898113250732,
				0.07163600623607635,
				0.012204558588564396
			]
		},
		{
			"children":[
				10,
				13,
				16
			],
			"name":"Pelvis",
			"rotation":[
				0.0630326196551323,
				-1.2886249578514253e-07,
				-8.138733242901708e-09,
				0.9980114698410034
			],
			"scale":[
				1,
				0.9999998807907104,
				0.9999998807907104
			],
			"translation":[
				1.845241737186143e-10,
				0,
				-0.016642700880765915
			]
		},
		{
			"name":"IKTarget.L",
			"rotation":[
				-0.7071067690849304,
				0,
				0,
				0.7071067690849304
			],
			"scale":[
				1,
				0.9999999403953552,
				1
			],
			"translation":[
				0.17502635717391968,
				-0.8202309012413025,
				-0.030177701264619827
			]
		},
		{
			"name":"IKPole.L",
			"rotation":[
				0,
				0.7071067690849304,
				0.7071067690849304,
				0
			],
			"translation":[
				0.1358882188796997,
				-0.059914469718933105,
				0.1896972954273224
			]
		},
		{
			"name":"IKTarget.R",
			"rotation":[
				-0.7071067690849304,
				0,
				0,
				0.7071067690849304
			],
			"scale":[
				1,
				0.9999999403953552,
				1
			],
			"translation":[
				-0.17502635717391968,
				-0.8202309012413025,
				-0.030177701264619827
			]
		},
		{
			"name":"IKPole.R",
			"rotation":[
				0,
				0.7071067690849304,
				0.7071067690849304,
				0
			],
			"translation":[
				-0.1358882188796997,
				-0.059914469718933105,
				0.1896972954273224
			]
		},
		{
			"mesh":0,
			"name":"Dude With Bones",
			"skin":0
		},
		{
			"children":[
				22,
				17,
				18,
				19,
				20,
				21
			],
			"name":"New Dude",
			"rotation":[
				0,
				-1,
				0,
				7.549790126404332e-08
			],
			"translation":[
				0.004370868671685457,
				0.8588414788246155,
				0
			]
		}
	],
	"materials":[
		{
			"doubleSided":true,
			"emissiveFactor":[
				1,
				1,
				1
			],
			"emissiveTexture":{
				"index":0
			},
			"extensions":{
				"KHR_materials_emissive_strength":{
					"emissiveStrength":20
				},
				"KHR_materials_specular":{
					"specularColorFactor":[
						0.3348859218371021,
						0.3348859218371021,
						0.3348859218371021
					]
				},
				"KHR_materials_ior":{
					"ior":1.4500000476837158
				}
			},
			"name":"ImphenziaPixPal",
			"pbrMetallicRoughness":{
				"baseColorTexture":{
					"index":1
				},
				"metallicRoughnessTexture":{
					"index":2
				}
			}
		}
	],
	"meshes":[
		{
			"name":"Cylinder.002",
			"primitives":[
				{
					"attributes":{
						"POSITION":0,
						"NORMAL":1,
						"TEXCOORD_0":2,
						"JOINTS_0":3,
						"WEIGHTS_0":4
					},
					"indices":5,
					"material":0
				}
			]
		}
	],
	"textures":[
		{
			"sampler":0,
			"source":0
		},
		{
			"sampler":0,
			"source":1
		},
		{
			"sampler":0,
			"source":2
		}
	],
	"images":[
		{
			"mimeType":"image/png",
			"name":"ImphenziaPixel-Emission",
			"uri":"ImphenziaPixel-Emission.png"
		},
		{
			"mimeType":"image/png",
			"name":"ImphenziaPixel-BaseColor",
			"uri":"ImphenziaPixel-BaseColor.png"
		},
		{
			"mimeType":"image/png",
			"name":"ImphenziaPixel-Attributes",
			"uri":"ImphenziaPixel-Attributes.png"
		}
	],
	"skins":[
		{
			"inverseBindMatrices":6,
			"joints":[
				17,
				10,
				9,
				0,
				4,
				3,
				2,
				1,
				8,
				7,
				6,
				5,
				13,
				12,
				11,
				16,
				15,
				14,
				18,
				19,
				20,
				21
			],
			"name":"New Dude"
		}
	],
	"accessors":[
		{
			"bufferView":0,
			"componentType":5126,
			"count":2090,
			"max":[
				0.8421598076820374,
				1.8491923809051514,
				0.18531690537929535
			],
			"min":[
				-0.833418071269989,
				0.003891177475452423,
				-0.194845050573349
			],
			"type":"VEC3"
		},
		{
			"bufferView":1,
			"componentType":5126,
			"count":2090,
			"type":"VEC3"
		},
		{
			"bufferView":2,
			"componentType":5126,
			"count":2090,
			"type":"VEC2"
		},
		{
			"bufferView":3,
			"componentType":5121,
			"count":2090,
			"type":"VEC4"
		},
		{
			"bufferView":4,
			"componentType":5126,
			"count":2090,
			"type":"VEC4"
		},
		{
			"bufferView":5,
			"componentType":5123,
			"count":3162,
			"type":"SCALAR"
		},
		{
			"bufferView":6,
			"componentType":5126,
			"count":22,
			"type":"MAT4"
		}
	],
	"bufferViews":[
		{
			"buffer":0,
			"byteLength":25080,
			"byteOffset":0,
			"target":34962
		},
		{
			"buffer":0,
			"byteLength":25080,
			"byteOffset":25080,
			"target":34962
		},
		{
			"buffer":0,
			"byteLength":16720,
			"byteOffset":50160,
			"target":34962
		},
		{
			"buffer":0,
			"byteLength":8360,
			"byteOffset":66880,
			"target":34962
		},
		{
			"buffer":0,
			"byteLength":33440,
			"byteOffset":75240,
			"target":34962
		},
		{
			"buffer":0,
			"byteLength":6324,
			"byteOffset":108680,
			"target":34963
		},
		{
			"buffer":0,
			"byteLength":1408,
			"byteOffset":115004
		}
	],
	"samplers":[
		{
			"magFilter":9728,
			"minFilter":9984
		}
	],
	"buffers":[
		{
			"byteLength":116412,
			"uri":"Wtf.bin"
		}
	]
}
